<?xml version="1.0" standalone="no"?>
<!DOCTYPE svg PUBLIC "-//W3C//DTD SVG 20010904//EN"
 "http://www.w3.org/TR/2001/REC-SVG-20010904/DTD/svg10.dtd">
<svg version="1.0" xmlns="http://www.w3.org/2000/svg"
 width="1280.000000pt" height="1223.000000pt" viewBox="0 0 1280.000000 1223.000000"
 preserveAspectRatio="xMidYMid meet">
<metadata>
Created by potrace 1.15, written by Peter Selinger 2001-2017
</metadata>
<g transform="translate(0.000000,1223.000000) scale(0.100000,-0.100000)"
fill="#000000" stroke="none">
<path d="M5781 12215 c-225 -63 -420 -274 -637 -690 -116 -221 -255 -549 -464
-1095 -286 -746 -434 -1075 -588 -1310 -153 -234 -266 -328 -495 -414 -276
-103 -607 -155 -1522 -236 -744 -66 -1033 -106 -1349 -186 -500 -125 -746
-345 -723 -644 15 -186 128 -389 365 -653 192 -214 434 -427 1099 -965 507
-412 777 -656 939 -852 166 -200 231 -333 254 -520 36 -296 -14 -645 -221
-1550 -185 -805 -236 -1084 -259 -1422 -19 -269 10 -475 89 -632 l46 -91 502
-446 c438 -390 510 -450 560 -469 223 -85 512 -27 937 186 254 128 460 252
1066 644 574 371 822 517 1060 625 283 128 479 162 684 120 275 -57 604 -218
1321 -645 757 -452 975 -572 1253 -691 397 -171 703 -203 889 -93 127 74 206
201 244 389 20 101 18 426 -5 580 -41 290 -116 614 -305 1323 -207 776 -271
1105 -271 1392 0 207 29 323 116 470 162 271 398 512 1124 1145 637 556 895
810 1082 1065 242 331 290 602 143 802 -28 38 -713 664 -973 889 -144 125
-421 223 -789 279 -272 41 -496 60 -1163 95 -822 43 -1098 72 -1380 143 -318
81 -466 188 -655 472 -170 255 -286 494 -613 1260 -188 442 -242 561 -357 795
-267 542 -501 832 -741 916 -77 28 -193 34 -263 14z m450 -1845 c254 -525 607
-1254 784 -1620 l321 -665 225 -17 c123 -10 865 -67 1649 -128 784 -61 1495
-115 1580 -121 85 -6 161 -12 167 -14 7 -2 -43 -57 -110 -122 -67 -65 -655
-628 -1305 -1252 -650 -623 -1182 -1139 -1182 -1146 0 -7 22 -105 49 -217 68
-276 265 -1091 306 -1263 19 -77 88 -365 155 -640 67 -275 134 -554 150 -620
16 -66 65 -270 110 -454 44 -184 79 -335 78 -337 -2 -1 -131 66 -288 150 -576
310 -2826 1514 -2866 1534 l-41 21 -1549 -953 c-852 -524 -1550 -952 -1551
-951 -2 1 28 175 66 386 82 451 216 1200 371 2059 61 338 131 729 156 868 41
227 45 254 31 265 -61 46 -2756 2344 -2756 2350 -1 4 9 7 21 7 35 0 3520 479
3546 487 20 7 46 61 162 343 75 184 298 724 494 1200 196 476 445 1080 553
1343 108 262 200 474 204 470 4 -5 216 -438 470 -963z"/>
</g>
</svg>
