        <svg width="120.00001" height="120.10718" id="svg5800" version="1.1" 
              class="play" @click="togglePlay()">
          <defs id="defs5802">
            <filter inkscape:collect="always" id="filter4049" color-interpolation-filters="sRGB">
              <feGaussianBlur inkscape:collect="always" stdDeviation="2.9886041" id="feGaussianBlur4051"/>
            </filter>
            <linearGradient inkscape:collect="always" xlink:href="#linearGradient3797" id="linearGradient5728"
              gradientUnits="userSpaceOnUse" gradientTransform="matrix(0.53065927,0,0,1.0876633,45.04097,392.18081)" 
              x1="693.75287" y1="441.75574" x2="692.45367" y2="258.57379"/>
            <linearGradient inkscape:collect="always" id="linearGradient3797">
              <stop class="stop1" stop-color="var(--blue-grey)" style="stop-opacity:1" offset="0" id="stop3799"/>
              <stop class="stop2" stop-color="var(--blue-grey-dark)" style="stop-opacity:1" offset="1" id="stop3801"/>
            </linearGradient>
          </defs>
          <g inkscape:label="Layer 1" inkscape:groupmode="layer" id="layer1" transform="translate(-321.39155,-362.23662)">
            <g transform="matrix(0.55984436,0,0,0.56034436,153.74484,-10.873494)" id="g5753">
              <rect class="uuu" fill="#1f241c" style="fill-opacity:1;fill-rule:evenodd;stroke:#ffffff;stroke-width:0.75972277;stroke-linecap:butt;stroke-linejoin:miter;stroke-miterlimit:4;stroke-opacity:1;stroke-dasharray:none;stroke-dashoffset:0;filter:url(#filter4049)" id="rect5685" width="199.24026" height="199.24028" x="307.01779" y="673.42206" ry="16.889114"/>
              <rect ry="16.889114" y="673.42206" x="307.01779" height="199.24028" width="199.24026" id="rect5687" style="fill:url(#linearGradient5728);fill-opacity:1;fill-rule:evenodd;stroke:none"/>
              <rect class="uuu" y="687.49774" x="306.96326" height="5.5363946" width="198.88438" id="rect5689" fill="#d7f4d7" style="fill-opacity:1;fill-rule:evenodd;stroke:none"/>
              <g style="stroke:#ffffff" transform="matrix(1.5472438,0,0,1.5472438,-178.18411,247.39736)" id="g5691">
                <path sodipodi:type="arc" style="opacity:0.54368932;fill:none;stroke:#ffffff;stroke-width:1;stroke-linecap:butt;stroke-linejoin:miter;stroke-miterlimit:4;stroke-opacity:1;stroke-dasharray:none;stroke-dashoffset:0" id="path5693" sodipodi:cx="325.31992" sodipodi:cy="476.68796" sodipodi:rx="2.953618" sodipodi:ry="2.953618" d="m 328.27353,476.68796 c 0,1.63124 -1.32238,2.95362 -2.95361,2.95362 -1.63124,0 -2.95362,-1.32238 -2.95362,-2.95362 0,-1.63124 1.32238,-2.95362 2.95362,-2.95362 1.63123,0 2.95361,1.32238 2.95361,2.95362 z" transform="translate(103.20033,-77.985646)"/>
                <path transform="matrix(0.7556502,0,0,0.7556502,188.37997,24.115885)" d="m 328.27353,476.68796 c 0,1.63124 -1.32238,2.95362 -2.95361,2.95362 -1.63124,0 -2.95362,-1.32238 -2.95362,-2.95362 0,-1.63124 1.32238,-2.95362 2.95362,-2.95362 1.63123,0 2.95361,1.32238 2.95361,2.95362 z" sodipodi:ry="2.953618" sodipodi:rx="2.953618" sodipodi:cy="476.68796" sodipodi:cx="325.31992" id="path5695" style="opacity:0.54368932;fill:none;stroke:#ffffff;stroke-width:1;stroke-linecap:butt;stroke-linejoin:miter;stroke-miterlimit:4;stroke-opacity:1;stroke-dasharray:none;stroke-dashoffset:0" sodipodi:type="arc"/>
                <path sodipodi:type="arc" style="opacity:0.54368932;fill:none;stroke:#ffffff;stroke-width:1;stroke-linecap:butt;stroke-linejoin:miter;stroke-miterlimit:4;stroke-opacity:1;stroke-dasharray:none;stroke-dashoffset:0" id="path5697" sodipodi:cx="325.31992" sodipodi:cy="476.68796" sodipodi:rx="2.953618" sodipodi:ry="2.953618" d="m 328.27353,476.68796 c 0,1.63124 -1.32238,2.95362 -2.95361,2.95362 -1.63124,0 -2.95362,-1.32238 -2.95362,-2.95362 0,-1.63124 1.32238,-2.95362 2.95362,-2.95362 1.63123,0 2.95361,1.32238 2.95361,2.95362 z" transform="matrix(0.5113004,0,0,0.5113004,270.68479,132.68725)"/>
                <path transform="translate(111.70108,-84.736773)" d="m 328.27353,476.68796 c 0,1.63124 -1.32238,2.95362 -2.95361,2.95362 -1.63124,0 -2.95362,-1.32238 -2.95362,-2.95362 0,-1.63124 1.32238,-2.95362 2.95362,-2.95362 1.63123,0 2.95361,1.32238 2.95361,2.95362 z" sodipodi:ry="2.953618" sodipodi:rx="2.953618" sodipodi:cy="476.68796" sodipodi:cx="325.31992" id="path5699" style="opacity:0.54368932;fill:none;stroke:#ffffff;stroke-width:1;stroke-linecap:butt;stroke-linejoin:miter;stroke-miterlimit:4;stroke-opacity:1;stroke-dasharray:none;stroke-dashoffset:0" sodipodi:type="arc"/>
              </g>
              <g id="g5701" transform="matrix(-1.5472438,0,0,1.5472438,991.77846,246.1928)">
                <path transform="translate(103.20033,-77.985646)" d="m 328.27353,476.68796 c 0,1.63124 -1.32238,2.95362 -2.95361,2.95362 -1.63124,0 -2.95362,-1.32238 -2.95362,-2.95362 0,-1.63124 1.32238,-2.95362 2.95362,-2.95362 1.63123,0 2.95361,1.32238 2.95361,2.95362 z" sodipodi:ry="2.953618" sodipodi:rx="2.953618" sodipodi:cy="476.68796" sodipodi:cx="325.31992" id="path5703" style="opacity:0.54368932;fill:none;stroke:#ffffff;stroke-width:1;stroke-linecap:butt;stroke-linejoin:miter;stroke-miterlimit:4;stroke-opacity:1;stroke-dasharray:none;stroke-dashoffset:0" sodipodi:type="arc"/>
                <path sodipodi:type="arc" style="opacity:0.54368932;fill:none;stroke:#ffffff;stroke-width:1;stroke-linecap:butt;stroke-linejoin:miter;stroke-miterlimit:4;stroke-opacity:1;stroke-dasharray:none;stroke-dashoffset:0" id="path5705" sodipodi:cx="325.31992" sodipodi:cy="476.68796" sodipodi:rx="2.953618" sodipodi:ry="2.953618" d="m 328.27353,476.68796 c 0,1.63124 -1.32238,2.95362 -2.95361,2.95362 -1.63124,0 -2.95362,-1.32238 -2.95362,-2.95362 0,-1.63124 1.32238,-2.95362 2.95362,-2.95362 1.63123,0 2.95361,1.32238 2.95361,2.95362 z" transform="matrix(0.7556502,0,0,0.7556502,188.37997,24.115885)"/>
                <path transform="matrix(0.5113004,0,0,0.5113004,270.68479,132.68725)" d="m 328.27353,476.68796 c 0,1.63124 -1.32238,2.95362 -2.95361,2.95362 -1.63124,0 -2.95362,-1.32238 -2.95362,-2.95362 0,-1.63124 1.32238,-2.95362 2.95362,-2.95362 1.63123,0 2.95361,1.32238 2.95361,2.95362 z" sodipodi:ry="2.953618" sodipodi:rx="2.953618" sodipodi:cy="476.68796" sodipodi:cx="325.31992" id="path5707" style="opacity:0.54368932;fill:none;stroke:#ffffff;stroke-width:1;stroke-linecap:butt;stroke-linejoin:miter;stroke-miterlimit:4;stroke-opacity:1;stroke-dasharray:none;stroke-dashoffset:0" sodipodi:type="arc"/>
                <path sodipodi:type="arc" style="opacity:0.54368932;fill:none;stroke:#ffffff;stroke-width:1;stroke-linecap:butt;stroke-linejoin:miter;stroke-miterlimit:4;stroke-opacity:1;stroke-dasharray:none;stroke-dashoffset:0" id="path5709" sodipodi:cx="325.31992" sodipodi:cy="476.68796" sodipodi:rx="2.953618" sodipodi:ry="2.953618" d="m 328.27353,476.68796 c 0,1.63124 -1.32238,2.95362 -2.95361,2.95362 -1.63124,0 -2.95362,-1.32238 -2.95362,-2.95362 0,-1.63124 1.32238,-2.95362 2.95362,-2.95362 1.63123,0 2.95361,1.32238 2.95361,2.95362 z" transform="translate(111.70108,-84.736773)"/>
              </g>
              <path class="uuu" sodipodi:type="star" fill="#ffffff" style="fill-opacity:1;fill-rule:evenodd;stroke:none" id="path5751" sodipodi:sides="3" sodipodi:cx="398.84293" sodipodi:cy="353.41269" sodipodi:r1="155.47128" sodipodi:r2="77.735641" sodipodi:arg1="0.78539816" sodipodi:arg2="1.8325957" inkscape:flatsided="true" inkscape:rounded="0" inkscape:randomized="0" d="M 508.77772,463.34749 248.6692,393.65162 439.08185,203.23896 z" inkscape:transform-center-x="13.827214" inkscape:transform-center-y="0.069407879" transform="matrix(-0.29244942,-0.12506418,0.07787333,-0.46967236,484.02669,988.85245)"/>
            </g>
          </g>
        </svg>