<?xml version="1.0" encoding="UTF-8" standalone="no"?>
<!-- Created with Inkscape (http://www.inkscape.org/) --><svg height="256" id="svg2" inkscape:version="0.43" sodipodi:docbase="/home/cosmin/Desktop" sodipodi:docname="play.svg" sodipodi:version="0.32" version="1.0" width="256"    >
  <sodipodi:namedview bordercolor="#666666" borderopacity="1.0" id="base" inkscape:current-layer="layer1" inkscape:cx="128" inkscape:cy="128" inkscape:document-units="px" inkscape:guide-bbox="true" inkscape:pageopacity="0.0" inkscape:pageshadow="2" inkscape:window-height="611" inkscape:window-width="796" inkscape:window-x="0" inkscape:window-y="27" inkscape:zoom="1.6835938" pagecolor="#ffffff" showguides="true"/>
  <g id="layer1" inkscape:groupmode="layer" inkscape:label="Layer 1">
    <g id="g3999" transform="translate(-9.513108,-4.443988)">
      <path d="M 6.4397221 233.82295 A 15.720499 15.720499 0 1 1  -25.001276,233.82295 A 15.720499 15.720499 0 1 1  6.4397221 233.82295 z" id="path2229" sodipodi:cx="-9.280777" sodipodi:cy="233.82295" sodipodi:rx="15.720499" sodipodi:ry="15.720499" sodipodi:type="arc" style="fill:#ffffff;fill-opacity:1;stroke:#021c69;stroke-width:0.7551946;stroke-linecap:round;stroke-linejoin:round;stroke-miterlimit:4;stroke-dasharray:none;stroke-dashoffset:0;stroke-opacity:1" transform="matrix(7.951251,0,0,7.951251,211.3069,-1726.741)"/>
      <path d="M 6.4397221 233.82295 A 15.720499 15.720499 0 1 1  -25.001276,233.82295 A 15.720499 15.720499 0 1 1  6.4397221 233.82295 z" id="path2231" sodipodi:cx="-9.280777" sodipodi:cy="233.82295" sodipodi:rx="15.720499" sodipodi:ry="15.720499" sodipodi:type="arc" style="fill:#3d6ddc;fill-opacity:1;stroke:#021c69;stroke-width:0.9405117;stroke-linecap:round;stroke-linejoin:round;stroke-miterlimit:4;stroke-dasharray:none;stroke-dashoffset:0;stroke-opacity:1" transform="matrix(6.384548,0,0,6.384548,196.7667,-1360.409)"/>
      <path d="M -9.9752557,218.86006 L -16.549706,222.78209 L -23.124156,226.70412 L -23.233508,219.04946 L -23.34286,211.39481 L -16.659058,215.12743 L -9.9752557,218.86006 z " id="path2239" inkscape:flatsided="false" inkscape:randomized="0" inkscape:rounded="0" sodipodi:arg1="-0.014284743" sodipodi:arg2="1.0329128" sodipodi:cx="-18.814091" sodipodi:cy="218.98633" sodipodi:r1="8.8397369" sodipodi:r2="4.419868" sodipodi:sides="3" sodipodi:type="star" style="fill:#ffffff;fill-opacity:1;stroke:#021c69;stroke-width:0.74960381;stroke-linecap:round;stroke-linejoin:round;stroke-miterlimit:4;stroke-dasharray:none;stroke-dashoffset:0;stroke-opacity:1" transform="matrix(7.907459,0,0,8.114994,290.54,-1645.141)"/>
    </g>
  </g>
</svg>
