<?xml version="1.0" encoding="iso-8859-1"?>
<!-- Generator: Adobe Illustrator 19.0.0, SVG Export Plug-In . SVG Version: 6.00 Build 0)  -->
<svg version="1.1" id="Layer_1" xmlns="http://www.w3.org/2000/svg" xmlns:xlink="http://www.w3.org/1999/xlink" x="0px" y="0px"
	 viewBox="0 0 512.557 512.557" style="enable-background:new 0 0 512.557 512.557;" xml:space="preserve">
<g transform="translate(1 1)">
	<path style="fill:#FFFFFF;" d="M27.104,144.252V355.73h122.435l153.6,141.357c15.583,8.904,35.617-2.226,35.617-21.148V35.174
		c0-18.922-20.035-30.052-35.617-21.148l-153.6,130.226H27.104z"/>
	<path style="fill:#CCCCCC;" d="M149.539,355.73l153.6,141.357c15.583,8.904,35.617-2.226,35.617-21.148V35.174
		c0-18.922-20.035-30.052-35.617-21.148l-153.6,130.226V355.73z"/>
	<path style="fill:#E2E3E5;" d="M60.496,144.252V355.73h89.043l120.209,111.304c15.583,8.904,35.617,27.826,35.617,8.904V35.174
		c0-18.922-20.035,0-35.617,8.904L149.539,144.252H60.496z"/>
	<g>
		<path style="fill:#B6B6B6;" d="M315.383,511.557c-5.565,0-12.243-1.113-17.809-4.452c-1.113,0-1.113-1.113-2.226-1.113
			l-150.261-139.13H27.104l0,0c-3.339,0-5.565-1.113-7.791-3.339s-3.339-4.452-3.339-7.791V144.252c0-6.678,4.452-11.13,11.13-11.13
			h117.983l151.374-128l1.113-1.113c11.13-6.678,23.374-6.678,34.504,0s17.809,17.809,17.809,31.165v441.878
			c0,13.357-6.678,24.487-17.809,31.165C326.513,510.444,320.948,511.557,315.383,511.557z M309.817,488.183
			c5.565,2.226,8.904,1.113,11.13,0c4.452-2.226,6.678-6.678,6.678-11.13V35.174c0-4.452-2.226-8.904-6.678-11.13
			c-2.226-1.113-6.678-3.339-11.13,0l-153.6,129.113c-1.113,1.113-4.452,2.226-6.678,2.226H38.235V344.6h111.304l0,0
			c3.339,0,5.565,1.113,7.791,3.339L309.817,488.183z"/>
		<path style="fill:#B6B6B6;" d="M149.539,211.035c-6.678,0-11.13-4.452-11.13-11.13v-55.652c0-6.678,4.452-11.13,11.13-11.13
			c6.678,0,11.13,4.452,11.13,11.13v55.652C160.67,206.583,156.217,211.035,149.539,211.035z"/>
		<path style="fill:#B6B6B6;" d="M149.539,366.861c-6.678,0-11.13-4.452-11.13-11.13v-55.652c0-6.678,4.452-11.13,11.13-11.13
			c6.678,0,11.13,4.452,11.13,11.13v55.652C160.67,362.409,156.217,366.861,149.539,366.861z"/>
		<path style="fill:#B6B6B6;" d="M383.278,394.687c-4.452,0-8.904-3.339-11.13-7.791c-2.226-5.565,2.226-12.243,7.791-13.357
			c54.539-15.583,92.383-66.783,92.383-122.435c0-56.765-37.844-106.852-92.383-122.435c-5.565-2.226-8.904-7.791-7.791-13.357
			c2.226-5.565,7.791-8.904,13.357-7.791c63.443,18.922,109.078,77.913,109.078,144.696s-44.522,125.774-109.078,144.696
			C385.504,394.687,384.391,394.687,383.278,394.687z"/>
	</g>
</g>
<g>
</g>
<g>
</g>
<g>
</g>
<g>
</g>
<g>
</g>
<g>
</g>
<g>
</g>
<g>
</g>
<g>
</g>
<g>
</g>
<g>
</g>
<g>
</g>
<g>
</g>
<g>
</g>
<g>
</g>
</svg>
