<?xml version="1.0" encoding="iso-8859-1"?>
<!-- Generator: Adobe Illustrator 19.0.0, SVG Export Plug-In . SVG Version: 6.00 Build 0)  -->
<svg version="1.1" id="Layer_1" xmlns="http://www.w3.org/2000/svg" xmlns:xlink="http://www.w3.org/1999/xlink" x="0px" y="0px"
	 viewBox="0 0 512 512" style="enable-background:new 0 0 512 512;" xml:space="preserve">
<g transform="translate(1)">
	<path style="fill:#FFFFFF;" d="M7.533,173.973v162.133H101.4L219.16,444.48c11.947,6.827,27.307-1.707,27.307-16.213V90.347
		c0-14.507-15.36-23.04-27.307-16.213l-117.76,99.84H7.533z"/>
	<path style="fill:#CCCCCC;" d="M101.4,336.107L219.16,444.48c11.947,6.827,27.307-1.707,27.307-16.213V90.347
		c0-14.507-15.36-23.04-27.307-16.213l-117.76,99.84V336.107z"/>
	<path style="fill:#E2E3E5;" d="M33.133,173.973v162.133H101.4l92.16,85.333c11.947,6.827,27.307,21.333,27.307,6.827V90.347
		c0-14.507-15.36,0-27.307,6.827l-92.16,76.8H33.133z"/>
	<g>
		<path style="fill:#B6B6B6;" d="M228.547,455.573c-4.267,0-9.387-0.853-13.653-3.413c-0.853,0-0.853-0.853-1.707-0.853
			L97.987,344.64H7.533l0,0c-2.56,0-4.267-0.853-5.973-2.56c-1.707-1.707-2.56-3.413-2.56-5.973V173.973
			c0-5.12,3.413-8.533,8.533-8.533h90.453L214.04,67.307l0.853-0.853c8.533-5.12,17.92-5.12,26.453,0
			C249.88,71.573,255,80.107,255,90.347V429.12c0,10.24-5.12,18.773-13.653,23.893C237.08,454.72,232.813,455.573,228.547,455.573z
			 M224.28,437.653c3.413,1.707,6.827,0.853,8.533,0c3.413-1.707,5.12-5.12,5.12-8.533V90.347c0-3.413-1.707-6.827-5.12-8.533
			c-1.707-0.853-5.12-2.56-8.533,0L106.52,180.8c-0.853,0.853-3.413,1.707-5.12,1.707H16.067v145.067H101.4l0,0
			c2.56,0,4.267,0.853,5.973,2.56L224.28,437.653z"/>
		<path style="fill:#B6B6B6;" d="M101.4,225.173c-5.12,0-8.533-3.413-8.533-8.533v-42.667c0-5.12,3.413-8.533,8.533-8.533
			c5.12,0,8.533,3.413,8.533,8.533v42.667C109.933,221.76,106.52,225.173,101.4,225.173z"/>
		<path style="fill:#B6B6B6;" d="M101.4,344.64c-5.12,0-8.533-3.413-8.533-8.533V293.44c0-5.12,3.413-8.533,8.533-8.533
			c5.12,0,8.533,3.413,8.533,8.533v42.667C109.933,341.227,106.52,344.64,101.4,344.64z"/>
		<path style="fill:#B6B6B6;" d="M327.533,412.907c-3.413,0-6.827-2.56-7.68-5.973c-1.707-4.267,0.853-9.387,5.12-11.093
			c60.587-20.48,100.693-76.8,100.693-140.8S385.56,134.72,324.973,113.387c-4.267-1.707-6.827-5.973-5.12-11.093
			c1.707-4.267,5.973-6.827,11.093-5.12c66.56,23.04,111.787,87.04,111.787,157.867s-45.227,134.827-112.64,157.013
			C329.24,412.907,328.387,412.907,327.533,412.907z"/>
		<path style="fill:#B6B6B6;" d="M368.493,458.133c-3.413,0-6.827-1.707-7.68-5.12c-1.707-4.267,0.853-9.387,5.12-11.093
			c77.653-29.867,128-103.253,128-186.88c0-81.067-47.787-152.747-122.027-184.32c-4.267-1.707-5.973-6.827-4.267-11.093
			c1.707-5.12,5.973-6.827,11.093-5.12C458.947,88.64,511,167.147,511,255.04c0,90.453-54.613,169.813-139.093,203.093
			C371.053,458.133,370.2,458.133,368.493,458.133z"/>
		<path style="fill:#B6B6B6;" d="M280.6,365.973c-3.413,0-6.827-2.56-8.533-5.973c-1.707-4.267,1.707-9.387,5.973-10.24
			c41.813-11.947,70.827-51.2,70.827-93.867c0-43.52-29.013-81.92-70.827-93.867c-4.267-1.707-6.827-5.973-5.973-10.24
			c1.707-4.267,5.973-6.827,10.24-5.973c48.64,14.507,83.627,59.733,83.627,110.933S331.8,353.173,282.307,367.68
			C282.307,365.973,281.453,365.973,280.6,365.973z"/>
	</g>
</g>
<g>
</g>
<g>
</g>
<g>
</g>
<g>
</g>
<g>
</g>
<g>
</g>
<g>
</g>
<g>
</g>
<g>
</g>
<g>
</g>
<g>
</g>
<g>
</g>
<g>
</g>
<g>
</g>
<g>
</g>
</svg>
